<svg width="32" height="32" viewBox="0 0 32 32" fill="none" xmlns="http://www.w3.org/2000/svg">
<g clip-path="url(#clip0_2131_3759)">
<path d="M16 32C24.8366 32 32 24.8366 32 16C32 7.16344 24.8366 0 16 0C7.16344 0 0 7.16344 0 16C0 24.8366 7.16344 32 16 32Z" fill="#5865F2"/>
<rect width="32" height="32" rx="8" fill="#5865F2"/>
<path d="M21.5447 10.9061C20.5073 10.43 19.4126 10.0905 18.2878 9.89614C18.2776 9.89419 18.267 9.89552 18.2576 9.89996C18.2481 9.90439 18.2403 9.9117 18.2353 9.92083C18.086 10.1915 17.9504 10.4696 17.8291 10.754C16.6167 10.5698 15.3836 10.5698 14.1712 10.754C14.0494 10.4689 13.9119 10.1907 13.7594 9.92083C13.7541 9.91189 13.7463 9.90474 13.737 9.90034C13.7276 9.89593 13.7171 9.89447 13.7069 9.89614C12.5825 10.0902 11.4881 10.4297 10.4512 10.9061C10.4423 10.9099 10.4348 10.9163 10.4297 10.9246C8.35562 14.0236 7.7875 17.0465 8.06625 20.0311C8.06704 20.0385 8.06931 20.0456 8.07291 20.052C8.0765 20.0585 8.08136 20.0641 8.08719 20.0686C9.29495 20.9633 10.6459 21.6463 12.0825 22.0883C12.0926 22.0914 12.1035 22.0912 12.1135 22.0879C12.1236 22.0846 12.1324 22.0783 12.1387 22.0699C12.4472 21.65 12.7205 21.2053 12.9559 20.7405C12.9591 20.7341 12.961 20.7271 12.9613 20.72C12.9616 20.7129 12.9604 20.7058 12.9578 20.6991C12.9552 20.6925 12.9512 20.6865 12.9461 20.6815C12.9409 20.6765 12.9348 20.6727 12.9281 20.6702C12.4971 20.5056 12.0797 20.307 11.68 20.0765C11.6727 20.0722 11.6667 20.0662 11.6623 20.059C11.6579 20.0518 11.6553 20.0437 11.6548 20.0353C11.6543 20.0269 11.6559 20.0185 11.6594 20.0108C11.6629 20.0032 11.6683 19.9965 11.675 19.9915C11.7587 19.929 11.8428 19.8633 11.9228 19.7971C11.9299 19.7912 11.9385 19.7875 11.9476 19.7863C11.9567 19.7851 11.966 19.7864 11.9744 19.7902C14.5928 20.9858 17.4278 20.9858 20.0153 19.7902C20.0238 19.7862 20.0332 19.7846 20.0425 19.7857C20.0518 19.7868 20.0606 19.7905 20.0678 19.7965C20.1478 19.8624 20.2319 19.9286 20.3178 19.9915C20.3245 19.9965 20.3299 20.0031 20.3335 20.0107C20.3371 20.0183 20.3387 20.0267 20.3383 20.0351C20.3379 20.0435 20.3354 20.0517 20.331 20.0589C20.3267 20.0661 20.3207 20.0721 20.3134 20.0765C19.9142 20.3092 19.4961 20.5079 19.0634 20.6702C19.0567 20.6727 19.0506 20.6767 19.0455 20.6818C19.0403 20.6869 19.0364 20.693 19.0338 20.6997C19.0312 20.7064 19.0301 20.7136 19.0305 20.7208C19.031 20.728 19.0329 20.7351 19.0362 20.7415C19.2756 21.2037 19.5485 21.6478 19.8528 22.0702C19.859 22.0789 19.8677 22.0854 19.8778 22.0888C19.8879 22.0923 19.8989 22.0924 19.9091 22.0893C21.3476 21.6485 22.7003 20.9654 23.9091 20.0696C23.915 20.0653 23.9199 20.0598 23.9235 20.0534C23.9271 20.047 23.9293 20.04 23.93 20.0327C24.2637 16.5815 23.3712 13.5833 21.5644 10.9258C21.5603 10.9171 21.5534 10.9102 21.5447 10.9061ZM13.3466 18.214C12.5581 18.214 11.9091 17.4902 11.9091 16.6015C11.9091 15.7127 12.5459 14.989 13.3466 14.989C14.1537 14.989 14.7972 15.719 14.7841 16.6015C14.7847 17.4902 14.1475 18.214 13.3466 18.214ZM18.6631 18.214C17.8747 18.214 17.2256 17.4902 17.2256 16.6015C17.2256 15.7127 17.8625 14.989 18.6631 14.989C19.4703 14.989 20.1137 15.719 20.1006 16.6015C20.1009 17.4902 19.4703 18.214 18.6631 18.214Z" fill="white"/>
</g>
<defs>
<clipPath id="clip0_2131_3759">
<rect width="32" height="32" fill="white"/>
</clipPath>
</defs>
</svg>
