<svg width="24" height="20" viewBox="0 0 24 20" fill="none" xmlns="http://www.w3.org/2000/svg">
<path d="M19.9705 2.075C18.5045 1.346 16.9325 0.808906 15.2889 0.50129C15.259 0.495354 15.2291 0.51019 15.2137 0.539864C15.0115 0.929575 14.7875 1.43798 14.6307 1.83759C12.8629 1.55075 11.1041 1.55075 9.37256 1.83759C9.2157 1.4291 8.98363 0.929575 8.78055 0.539864C8.76513 0.51118 8.73523 0.496344 8.7053 0.50129C7.06258 0.807923 5.49058 1.34502 4.02373 2.075C4.01103 2.08093 4.00015 2.09083 3.99292 2.10368C1.01117 6.93162 0.194339 11.6409 0.595048 16.2918C0.596861 16.3145 0.608646 16.3363 0.624965 16.3501C2.59224 17.9159 4.49789 18.8665 6.36814 19.4965C6.39807 19.5064 6.42979 19.4946 6.44884 19.4679C6.89125 18.8131 7.28562 18.1227 7.62375 17.3966C7.6437 17.3541 7.62465 17.3036 7.58387 17.2868C6.95833 17.0297 6.3627 16.7161 5.78974 16.36C5.74442 16.3313 5.74079 16.2611 5.78249 16.2275C5.90306 16.1295 6.02366 16.0277 6.13879 15.9248C6.15962 15.906 6.18864 15.902 6.21314 15.9139C9.97723 17.7765 14.0523 17.7765 17.772 15.9139C17.7965 15.9011 17.8255 15.905 17.8472 15.9238C17.9624 16.0267 18.083 16.1295 18.2045 16.2275C18.2462 16.2611 18.2434 16.3313 18.1981 16.36C17.6252 16.723 17.0295 17.0297 16.4031 17.2858C16.3623 17.3027 16.3441 17.3541 16.3641 17.3966C16.7095 18.1216 17.1039 18.8121 17.5381 19.4669C17.5562 19.4946 17.5889 19.5064 17.6188 19.4965C19.4981 18.8665 21.4038 17.9159 23.371 16.3501C23.3883 16.3363 23.3992 16.3155 23.401 16.2928C23.8805 10.9158 22.5977 6.24517 20.0004 2.10466C19.994 2.09083 19.9832 2.08093 19.9705 2.075ZM8.18586 13.4599C7.0526 13.4599 6.11884 12.3323 6.11884 10.9475C6.11884 9.5627 7.03449 8.43511 8.18586 8.43511C9.34625 8.43511 10.271 9.5726 10.2528 10.9475C10.2528 12.3323 9.33718 13.4599 8.18586 13.4599ZM15.8283 13.4599C14.6951 13.4599 13.7613 12.3323 13.7613 10.9475C13.7613 9.5627 14.6769 8.43511 15.8283 8.43511C16.9887 8.43511 17.9134 9.5726 17.8953 10.9475C17.8953 12.3323 16.9887 13.4599 15.8283 13.4599Z" fill="white"/>
</svg>
