<svg width="32" height="32" viewBox="0 0 32 32" fill="none" xmlns="http://www.w3.org/2000/svg">
<g clip-path="url(#clip0_2131_4369)">
<path d="M16 32C24.8366 32 32 24.8366 32 16C32 7.16344 24.8366 0 16 0C7.16344 0 0 7.16344 0 16C0 24.8366 7.16344 32 16 32Z" fill="#2DAAE1"/>
<rect width="32" height="32" rx="8" fill="#2DAAE1"/>
<path d="M25.4573 10.7746C24.7784 11.0759 24.0492 11.2795 23.2825 11.3711C24.065 10.9025 24.6644 10.16 24.9474 9.27638C24.2042 9.71784 23.3907 10.0286 22.5424 10.1952C21.8521 9.45941 20.8677 9 19.7786 9C17.6882 9 15.9928 10.6947 15.9928 12.7863C15.9928 13.0827 16.0262 13.3718 16.0904 13.6494C12.9435 13.4913 10.1536 11.9839 8.28614 9.69341C7.96006 10.2528 7.77342 10.9032 7.77342 11.5972C7.77342 12.9106 8.44195 14.0695 9.45777 14.7483C8.85642 14.7297 8.26827 14.5674 7.74248 14.275V14.3228C7.74248 16.1575 9.04744 17.6873 10.7797 18.0352C10.4615 18.1224 10.1275 18.168 9.78205 18.168C9.53778 18.168 9.30079 18.1449 9.06928 18.1013C9.55112 19.6051 10.9495 20.6997 12.6059 20.7306C11.31 21.7465 9.67716 22.352 7.90371 22.352C7.59825 22.352 7.29637 22.3338 7 22.298C8.6759 23.3727 10.6658 24 12.8041 24C19.7683 24 23.5771 18.2304 23.5771 13.227C23.5771 13.0628 23.5735 12.8997 23.5655 12.7373C24.3076 12.2005 24.9482 11.5359 25.4573 10.7746Z" fill="white"/>
</g>
<defs>
<clipPath id="clip0_2131_4369">
<rect width="32" height="32" fill="white"/>
</clipPath>
</defs>
</svg>
