<svg width="23" height="20" viewBox="0 0 23 20" fill="none" xmlns="http://www.w3.org/2000/svg">
<path d="M7.21626 19.5C15.9012 19.5 20.6501 12.1885 20.6501 5.85183C20.6501 5.64293 20.6501 5.43403 20.6403 5.23508C21.5607 4.55864 22.3636 3.71309 23 2.74817C22.1579 3.12618 21.2473 3.38482 20.2878 3.50419C21.2669 2.90733 22.0111 1.97225 22.3636 0.848168C21.453 1.39529 20.4444 1.79319 19.3674 2.01204C18.5057 1.07696 17.2818 0.5 15.9208 0.5C13.3163 0.5 11.2014 2.64869 11.2014 5.29476C11.2014 5.67277 11.2405 6.04084 11.3286 6.38901C7.4023 6.19005 3.92635 4.28011 1.596 1.37539C1.19455 2.08168 0.959558 2.90733 0.959558 3.78272C0.959558 5.44398 1.79183 6.91623 3.06471 7.77173C2.29119 7.75183 1.56662 7.53299 0.930183 7.17487C0.930183 7.19477 0.930183 7.21466 0.930183 7.23455C0.930183 9.5623 2.55556 11.4921 4.71945 11.9398C4.3278 12.0492 3.90677 12.1089 3.47595 12.1089C3.17241 12.1089 2.87867 12.0791 2.58493 12.0194C3.18221 13.9293 4.92508 15.312 6.99106 15.3518C5.37548 16.6351 3.33887 17.401 1.12601 17.401C0.744146 17.401 0.372073 17.3812 0 17.3314C2.06599 18.7042 4.553 19.5 7.21626 19.5Z" fill="white"/>
</svg>
