
<svg width="65" height="65" viewBox="0 0 65 65" fill="none" xmlns="http://www.w3.org/2000/svg">
<circle cx="32.5" cy="32.5" r="32.5" fill="url(#paint0_linear_109_4717)"/>
<path d="M30.1853 15.005C30.0511 13.9907 30.7652 13.0504 31.7876 13.013C35.194 12.8884 38.5853 13.659 41.6175 15.2628C45.1973 17.1563 48.0988 20.1175 49.9191 23.7351C51.7394 27.3527 52.3883 31.4473 51.7755 35.4505C51.1627 39.4537 49.3188 43.1667 46.4997 46.0742C43.6806 48.9817 40.0262 50.9393 36.0439 51.6753C32.0615 52.4113 27.9488 51.8891 24.2767 50.1813C20.6047 48.4735 17.5554 45.6647 15.5523 42.145C13.8557 39.1638 12.9809 35.7978 13.0003 32.3892C13.0061 31.3661 13.9239 30.6234 14.9419 30.7262V30.7262C15.9598 30.829 16.6902 31.7393 16.7072 32.7622C16.751 35.4025 17.4565 38.0004 18.7724 40.3125C20.3949 43.1634 22.8648 45.4385 25.8392 46.8218C28.8135 48.2052 32.1448 48.6281 35.3705 48.032C38.5962 47.4358 41.5563 45.8501 43.8398 43.4951C46.1232 41.14 47.6168 38.1325 48.1131 34.8899C48.6095 31.6473 48.0839 28.3307 46.6095 25.4004C45.135 22.4701 42.7848 20.0716 39.8852 18.5379C37.5336 17.294 34.9152 16.6689 32.2748 16.7066C31.2518 16.7212 30.3195 16.0192 30.1853 15.005V15.005Z" fill="white"/>
<path d="M33.4543 26.6348L29.6445 32.951L33.9556 37.2119" stroke="white" stroke-width="4" stroke-linecap="round"/>
<defs>
<linearGradient id="paint0_linear_109_4717" x1="-6.65205" y1="-21.45" x2="84.7468" y2="-12.6637" gradientUnits="userSpaceOnUse">
<stop stop-color="#5D3EF8"/>
<stop offset="1" stop-color="#BA4CD6"/>
</linearGradient>
</defs>
</svg>
