<svg width="21" height="21" viewBox="0 0 21 21" fill="none" xmlns="http://www.w3.org/2000/svg">
<path d="M18.0997 7.65015H9.54867C8.4992 7.65015 7.64844 8.5008 7.64844 9.55013V18.1C7.64844 19.1494 8.4992 20 9.54867 20H18.0997C19.1492 20 19.9999 19.1494 19.9999 18.1V9.55013C19.9999 8.5008 19.1492 7.65015 18.0997 7.65015Z" stroke="#333333" stroke-linecap="round" stroke-linejoin="round"/>
<path d="M3.85035 13.3499H2.90023C2.39626 13.3499 1.91293 13.1497 1.55656 12.7934C1.2002 12.4371 1 11.9538 1 11.4499V2.89998C1 2.39607 1.2002 1.91281 1.55656 1.55649C1.91293 1.20018 2.39626 1 2.90023 1H11.4513C11.9552 1 12.4386 1.20018 12.7949 1.55649C13.1513 1.91281 13.3515 2.39607 13.3515 2.89998V3.84997" stroke="#333333" stroke-linecap="round" stroke-linejoin="round"/>
</svg>
