<svg width="166" height="166" viewBox="0 0 166 166" fill="none" xmlns="http://www.w3.org/2000/svg">
<path d="M83.5879 65.2139V100.178L134.93 120.214L135.714 79.3567L83.5879 65.2139Z" fill="url(#paint0_linear_2226_62078)"/>
<g filter="url(#filter0_f_2226_62078)">
<path d="M135.322 79.3564L83.9795 65.6064" stroke="url(#paint1_linear_2226_62078)" stroke-opacity="0.9" stroke-width="0.5" stroke-linecap="round"/>
</g>
<path d="M83.5879 65.2139V100.178L30.6782 119.821V79.3567L83.5879 65.2139Z" fill="url(#paint2_linear_2226_62078)"/>
<g filter="url(#filter1_f_2226_62078)">
<path d="M31.8542 79.3564L83.1963 65.6064" stroke="url(#paint3_linear_2226_62078)" stroke-width="0.5" stroke-linecap="round"/>
</g>
<path d="M83.5879 165V93.1068L136.498 80.1426V150.474C136.498 151.161 136.031 151.76 135.365 151.928L83.5879 165Z" fill="url(#paint4_linear_2226_62078)"/>
<mask id="mask0_2226_62078" style="mask-type:alpha" maskUnits="userSpaceOnUse" x="83" y="80" width="54" height="85">
<path d="M83.5879 165V93.1068L136.498 80.1426V150.474C136.498 151.161 136.031 151.76 135.365 151.928L83.5879 165Z" fill="url(#paint5_linear_2226_62078)"/>
</mask>
<g mask="url(#mask0_2226_62078)">
<g filter="url(#filter2_f_2226_62078)">
<ellipse rx="22.2559" ry="13.8626" transform="matrix(-0.879917 -0.475127 0.47338 -0.880859 105.029 106.114)" fill="url(#paint6_linear_2226_62078)"/>
</g>
</g>
<path d="M83.1963 165V93.1073L30.2866 79.75V150.475C30.2866 151.162 30.7533 151.761 31.4194 151.929L83.1963 165Z" fill="url(#paint7_linear_2226_62078)"/>
<mask id="mask1_2226_62078" style="mask-type:alpha" maskUnits="userSpaceOnUse" x="30" y="79" width="54" height="86">
<path d="M83.1963 165V93.1073L30.2866 79.75V150.475C30.2866 151.162 30.7533 151.761 31.4194 151.929L83.1963 165Z" fill="url(#paint8_linear_2226_62078)"/>
</mask>
<g mask="url(#mask1_2226_62078)">
<g filter="url(#filter3_f_2226_62078)">
<ellipse rx="25.3176" ry="14.7198" transform="matrix(0.700304 -0.713845 0.712179 0.701998 48.6311 113.744)" fill="#562C8C"/>
</g>
</g>
<g filter="url(#filter4_f_2226_62078)">
<path d="M83.5879 164.607L135.322 151.643" stroke="url(#paint9_linear_2226_62078)" stroke-opacity="0.4" stroke-width="0.3" stroke-linecap="round" stroke-linejoin="round"/>
</g>
<g filter="url(#filter5_f_2226_62078)">
<path d="M83.5879 164.607L31.8539 151.643" stroke="url(#paint10_linear_2226_62078)" stroke-width="0.3" stroke-linecap="round" stroke-linejoin="round"/>
</g>
<g filter="url(#filter6_f_2226_62078)">
<path d="M83.5879 94.2852V164.098" stroke="url(#paint11_linear_2226_62078)" stroke-width="2" stroke-linecap="round" stroke-linejoin="round"/>
</g>
<path d="M161.591 92.5122C153.136 91.0526 138.898 88.6037 134.852 87.9408C134.262 87.8442 133.814 87.2507 133.881 86.6572L134.397 82.1564C134.469 81.524 135.106 81.1193 135.71 81.3225L162.075 90.203C162.482 90.3401 162.756 90.7214 162.756 91.1507V91.5259C162.756 92.1462 162.202 92.6177 161.591 92.5122Z" fill="#6A3FAF"/>
<path d="M162.697 89.2613L135.714 79.3564V82.4993L161.705 92.3164C162.265 92.5278 162.884 92.2035 163.029 91.6229L163.323 90.442C163.447 89.9464 163.177 89.4373 162.697 89.2613Z" fill="#BE8AFF"/>
<g filter="url(#filter7_f_2226_62078)">
<path d="M161.973 92.3204L135.714 82.499" stroke="url(#paint12_linear_2226_62078)" stroke-width="0.5" stroke-linecap="round"/>
</g>
<g filter="url(#filter8_f_2226_62078)">
<path d="M162.756 89.5704L136.105 79.749" stroke="#BE8AFF" stroke-linecap="round"/>
</g>
<path d="M4.8009 92.5122C13.2553 91.0526 27.4941 88.6037 31.5397 87.9408C32.1292 87.8442 32.5781 87.2507 32.5101 86.6572L31.9946 82.1564C31.9221 81.524 31.2851 81.1193 30.6819 81.3225L4.31612 90.203C3.9093 90.3401 3.63532 90.7214 3.63532 91.1507V91.5259C3.63532 92.1462 4.18961 92.6177 4.8009 92.5122Z" fill="#5209AE"/>
<path d="M3.69413 89.2613L30.6777 79.3564V82.4993L4.68657 92.3164C4.12674 92.5278 3.50777 92.2035 3.36295 91.6229L3.06844 90.442C2.94483 89.9464 3.21461 89.4373 3.69413 89.2613Z" fill="url(#paint13_linear_2226_62078)"/>
<g filter="url(#filter9_f_2226_62078)">
<path d="M4.81152 92.3209L28.7189 83.2852" stroke="url(#paint14_linear_2226_62078)" stroke-width="0.5" stroke-linecap="round"/>
</g>
<g filter="url(#filter10_f_2226_62078)">
<path d="M3.63574 89.5704L30.6785 79.749" stroke="url(#paint15_linear_2226_62078)" stroke-opacity="0.7" stroke-width="0.7" stroke-linecap="round"/>
</g>
<path d="M83.5879 96.6422V93.1064L111.414 115.106L161.189 101.356C163.204 103.743 162.07 107.415 159.059 108.249L116.215 120.128C112.505 121.157 108.528 120.171 105.728 117.529L83.5879 96.6422Z" fill="url(#paint16_linear_2226_62078)"/>
<g filter="url(#filter11_f_2226_62078)">
<path d="M83.9795 97.0352L105.767 117.571C108.546 120.19 112.484 121.181 116.171 120.188L152.566 110.392" stroke="url(#paint17_linear_2226_62078)" stroke-width="0.5" stroke-linecap="round" stroke-linejoin="round"/>
</g>
<path d="M108.058 115.251L83.5879 93.1064L135.714 79.3564L160.763 100.929C161.962 101.961 161.543 103.912 160.025 104.362L116.653 117.207C113.643 118.098 110.386 117.357 108.058 115.251Z" fill="#BE8AFF"/>
<g filter="url(#filter12_f_2226_62078)">
<path d="M83.9795 93.499L106.82 114.136C109.918 116.935 114.248 117.923 118.253 116.744L160.353 104.352C160.886 104.195 161.332 103.818 161.58 103.32V103.32" stroke="#DFB6FF" stroke-linecap="round" stroke-linejoin="round"/>
</g>
<path d="M83.5879 96.6422V93.1064L55.2287 115.106L4.50175 101.356C2.6308 103.561 3.66988 106.961 6.45319 107.743L50.4982 120.119C54.1817 121.154 58.1385 120.201 60.9463 117.601L83.5879 96.6422Z" fill="url(#paint18_linear_2226_62078)"/>
<g filter="url(#filter13_f_2226_62078)">
<path d="M83.5879 96.249L60.939 117.216C58.1359 119.811 54.1872 120.766 50.5081 119.739L14.2173 109.606" stroke="url(#paint19_linear_2226_62078)" stroke-opacity="0.7" stroke-width="0.5" stroke-linecap="round" stroke-linejoin="round"/>
</g>
<path d="M58.5449 115.343L83.5879 93.1064L30.4644 79.3564L4.95407 100.913C3.73508 101.943 4.15431 103.916 5.68684 104.362L50.0577 117.256C53.0275 118.119 56.2323 117.396 58.5449 115.343Z" fill="url(#paint20_linear_2226_62078)"/>
<g filter="url(#filter14_f_2226_62078)">
<path d="M83.1895 93.499L58.5379 115.355C56.2295 117.401 53.0338 118.123 50.0699 117.267L5.25366 104.323C4.77083 104.184 4.35819 103.867 4.09786 103.438L4.02693 103.32" stroke="url(#paint21_linear_2226_62078)" stroke-linecap="round" stroke-linejoin="round"/>
</g>
<path d="M74.1797 80.1431V79.3574H92.992V80.1431C92.992 82.5003 91.0324 86.4288 89.0728 86.8217C87.1132 87.2146 79.6666 87.6074 77.3151 86.4288C75.4338 85.486 74.1797 81.7146 74.1797 80.1431Z" fill="url(#paint22_linear_2226_62078)"/>
<path fill-rule="evenodd" clip-rule="evenodd" d="M72.6123 77V80.9286C72.6123 80.9286 72.6123 80.9286 72.6123 80.9286C72.6123 81.5795 77.5255 82.1071 83.5862 82.1071C89.6469 82.1071 94.5601 81.5795 94.5601 80.9286V77H72.6123Z" fill="#DB4A32"/>
<ellipse cx="83.5862" cy="76.9999" rx="10.9739" ry="1.17857" fill="#EC614A"/>
<mask id="mask2_2226_62078" style="mask-type:alpha" maskUnits="userSpaceOnUse" x="72" y="77" width="23" height="6">
<path fill-rule="evenodd" clip-rule="evenodd" d="M83.5862 78.1786C89.6469 78.1786 94.5601 77.6509 94.5601 77V80.9286C94.5601 81.5795 89.6469 82.1071 83.5862 82.1071C77.5255 82.1071 72.6123 81.5795 72.6123 80.9286V80.9286V77C72.6123 77.6509 77.5255 78.1786 83.5862 78.1786Z" fill="#DB4A32"/>
</mask>
<g mask="url(#mask2_2226_62078)">
<g filter="url(#filter15_f_2226_62078)">
<ellipse cx="78.8828" cy="79.3567" rx="2.35154" ry="3.14285" fill="white" fill-opacity="0.5"/>
</g>
<g filter="url(#filter16_f_2226_62078)">
<ellipse cx="91.4248" cy="79.3567" rx="2.35154" ry="3.14285" fill="white" fill-opacity="0.3"/>
</g>
</g>
<g filter="url(#filter17_f_2226_62078)">
<path d="M94.3944 77.1396C94.402 77.1476 94.4061 77.1534 94.4083 77.1571C94.4061 77.1608 94.402 77.1665 94.3944 77.1745C94.3727 77.1974 94.3329 77.2274 94.2674 77.2618C94.1367 77.3304 93.9345 77.4009 93.6608 77.4705C93.1157 77.6089 92.3203 77.7349 91.3299 77.8413C89.3508 78.0539 86.6129 78.1857 83.5862 78.1857C80.5594 78.1857 77.8216 78.0539 75.8425 77.8413C74.852 77.7349 74.0567 77.6089 73.5116 77.4705C73.2379 77.4009 73.0356 77.3304 72.905 77.2618C72.8394 77.2274 72.7996 77.1974 72.778 77.1745C72.7704 77.1665 72.7663 77.1608 72.764 77.1571C72.7663 77.1534 72.7704 77.1476 72.778 77.1396C72.7996 77.1167 72.8394 77.0868 72.905 77.0524C73.0356 76.9838 73.2379 76.9132 73.5116 76.8437C74.0567 76.7053 74.852 76.5792 75.8425 76.4729C77.8216 76.2603 80.5594 76.1285 83.5862 76.1285C86.6129 76.1285 89.3508 76.2603 91.3299 76.4729C92.3203 76.5792 93.1157 76.7053 93.6608 76.8437C93.9345 76.9132 94.1367 76.9838 94.2674 77.0524C94.3329 77.0868 94.3727 77.1167 94.3944 77.1396Z" stroke="url(#paint23_linear_2226_62078)" stroke-width="0.3"/>
</g>
<g filter="url(#filter18_f_2226_62078)">
<path d="M72.6123 80.9287C74.5719 82.1073 91.0327 82.893 94.5601 80.9287" stroke="url(#paint24_linear_2226_62078)"/>
</g>
<path d="M74.5723 76.6098V74.75C74.5723 74.4739 74.7961 74.25 75.0723 74.25H92.1008C92.3769 74.25 92.6008 74.4739 92.6008 74.75V76.5766C92.6008 76.8209 92.4253 77.0298 92.1836 77.0655C87.506 77.7575 78.353 77.7638 74.9503 77.0843C74.7254 77.0394 74.5723 76.8392 74.5723 76.6098Z" fill="#E95239"/>
<g filter="url(#filter19_f_2226_62078)">
<path d="M74.5723 77C78.0996 77.7857 89.8573 77.7857 92.6008 77" stroke="url(#paint25_linear_2226_62078)" stroke-width="0.4"/>
</g>
<path fill-rule="evenodd" clip-rule="evenodd" d="M72.6123 70.7148V74.6434C72.6123 74.6434 72.6123 74.6434 72.6123 74.6434C72.6123 75.2943 77.5255 75.822 83.5862 75.822C89.6469 75.822 94.5601 75.2943 94.5601 74.6434V70.7148H72.6123Z" fill="#DB4A32"/>
<ellipse cx="83.5862" cy="70.7147" rx="10.9739" ry="1.17857" fill="#EC614A"/>
<mask id="mask3_2226_62078" style="mask-type:alpha" maskUnits="userSpaceOnUse" x="72" y="70" width="23" height="6">
<path fill-rule="evenodd" clip-rule="evenodd" d="M83.5862 71.8934C89.6469 71.8934 94.5601 71.3657 94.5601 70.7148V74.6434C94.5601 75.2943 89.6469 75.822 83.5862 75.822C77.5255 75.822 72.6123 75.2943 72.6123 74.6434V74.6434V70.7148C72.6123 71.3657 77.5255 71.8934 83.5862 71.8934Z" fill="#DB4A32"/>
</mask>
<g mask="url(#mask3_2226_62078)">
<g filter="url(#filter20_f_2226_62078)">
<ellipse cx="78.8828" cy="73.0716" rx="2.35154" ry="3.14285" fill="white" fill-opacity="0.5"/>
</g>
<g filter="url(#filter21_f_2226_62078)">
<ellipse cx="91.4248" cy="73.0716" rx="2.35154" ry="3.14285" fill="white" fill-opacity="0.3"/>
</g>
</g>
<g filter="url(#filter22_f_2226_62078)">
<path d="M94.3944 70.8545C94.402 70.8625 94.4061 70.8683 94.4083 70.8719C94.4061 70.8756 94.402 70.8814 94.3944 70.8894C94.3727 70.9123 94.3329 70.9422 94.2674 70.9766C94.1367 71.0452 93.9345 71.1158 93.6608 71.1853C93.1157 71.3237 92.3203 71.4498 91.3299 71.5562C89.3508 71.7687 86.6129 71.9005 83.5862 71.9005C80.5594 71.9005 77.8216 71.7687 75.8425 71.5562C74.852 71.4498 74.0567 71.3237 73.5116 71.1853C73.2379 71.1158 73.0356 71.0452 72.905 70.9766C72.8394 70.9422 72.7996 70.9123 72.778 70.8894C72.7704 70.8814 72.7663 70.8756 72.764 70.8719C72.7663 70.8683 72.7704 70.8625 72.778 70.8545C72.7996 70.8316 72.8394 70.8016 72.905 70.7672C73.0356 70.6987 73.2379 70.6281 73.5116 70.5586C74.0567 70.4202 74.852 70.2941 75.8425 70.1877C77.8216 69.9751 80.5594 69.8434 83.5862 69.8434C86.6129 69.8434 89.3508 69.9751 91.3299 70.1877C92.3203 70.2941 93.1157 70.4202 93.6608 70.5586C93.9345 70.6281 94.1367 70.6987 94.2674 70.7672C94.3329 70.8016 94.3727 70.8316 94.3944 70.8545Z" stroke="url(#paint26_linear_2226_62078)" stroke-width="0.3"/>
</g>
<g filter="url(#filter23_f_2226_62078)">
<path d="M72.6123 74.6436C74.5719 75.8221 91.0327 76.6078 94.5601 74.6436" stroke="url(#paint27_linear_2226_62078)"/>
</g>
<path d="M74.5723 70.3247V68.4648C74.5723 68.1887 74.7961 67.9648 75.0723 67.9648H92.1008C92.3769 67.9648 92.6008 68.1887 92.6008 68.4648V70.2914C92.6008 70.5358 92.4253 70.7446 92.1836 70.7804C87.506 71.4724 78.353 71.4786 74.9503 70.7992C74.7254 70.7543 74.5723 70.554 74.5723 70.3247Z" fill="#E95239"/>
<g filter="url(#filter24_f_2226_62078)">
<path d="M74.5723 70.7148C78.0996 71.5006 89.8573 71.5006 92.6008 70.7148" stroke="url(#paint28_linear_2226_62078)" stroke-width="0.4"/>
</g>
<path fill-rule="evenodd" clip-rule="evenodd" d="M72.6123 64.4287V68.3573C72.6123 69.0082 77.5255 69.5359 83.5862 69.5359C89.6469 69.5359 94.5601 69.0082 94.5601 68.3573V64.4287H72.6123Z" fill="#DB4A32"/>
<ellipse cx="83.5862" cy="64.4286" rx="10.9739" ry="1.17857" fill="#EC614A"/>
<mask id="mask4_2226_62078" style="mask-type:alpha" maskUnits="userSpaceOnUse" x="72" y="64" width="23" height="6">
<path fill-rule="evenodd" clip-rule="evenodd" d="M83.5862 65.6073C89.6469 65.6073 94.5601 65.0796 94.5601 64.4287V68.3573C94.5601 69.0082 89.6469 69.5359 83.5862 69.5359C77.5255 69.5359 72.6123 69.0082 72.6123 68.3573V64.4287M83.5862 65.6073C77.5255 65.6073 72.6123 65.0796 72.6123 64.4287L83.5862 65.6073Z" fill="#DB4A32"/>
</mask>
<g mask="url(#mask4_2226_62078)">
<g filter="url(#filter25_f_2226_62078)">
<ellipse cx="78.8828" cy="66.7854" rx="2.35154" ry="3.14285" fill="white" fill-opacity="0.5"/>
</g>
<g filter="url(#filter26_f_2226_62078)">
<ellipse cx="91.4248" cy="66.7854" rx="2.35154" ry="3.14285" fill="white" fill-opacity="0.3"/>
</g>
</g>
<g filter="url(#filter27_f_2226_62078)">
<path d="M94.3944 64.5684C94.402 64.5763 94.4061 64.5821 94.4083 64.5858C94.4061 64.5895 94.402 64.5953 94.3944 64.6032C94.3727 64.6261 94.3329 64.6561 94.2674 64.6905C94.1367 64.7591 93.9345 64.8297 93.6608 64.8992C93.1157 65.0376 92.3203 65.1636 91.3299 65.27C89.3508 65.4826 86.6129 65.6144 83.5862 65.6144C80.5594 65.6144 77.8216 65.4826 75.8425 65.27C74.852 65.1636 74.0567 65.0376 73.5116 64.8992C73.2379 64.8297 73.0356 64.7591 72.905 64.6905C72.8394 64.6561 72.7996 64.6261 72.778 64.6032C72.7704 64.5953 72.7663 64.5895 72.764 64.5858C72.7663 64.5821 72.7704 64.5763 72.778 64.5684C72.7996 64.5454 72.8394 64.5155 72.905 64.4811C73.0356 64.4125 73.2379 64.3419 73.5116 64.2724C74.0567 64.134 74.852 64.0079 75.8425 63.9016C77.8216 63.689 80.5594 63.5572 83.5862 63.5572C86.6129 63.5572 89.3508 63.689 91.3299 63.9016C92.3203 64.0079 93.1157 64.134 93.6608 64.2724C93.9345 64.3419 94.1367 64.4125 94.2674 64.4811C94.3329 64.5155 94.3727 64.5454 94.3944 64.5684Z" stroke="url(#paint29_linear_2226_62078)" stroke-width="0.3"/>
</g>
<g filter="url(#filter28_f_2226_62078)">
<path d="M72.6123 68.3574C74.5719 69.536 91.0327 70.3217 94.5601 68.3574" stroke="url(#paint30_linear_2226_62078)"/>
</g>
<path d="M69.0868 53.0356C72.5358 56.8071 75.227 62.0713 76.1415 64.4284C78.8835 65.2142 89.2303 65.3713 91.425 64.4284C93.3847 57.3568 97.6958 55.0001 102.399 47.9287C107.102 40.8573 105.575 32.9861 104.75 30.643C102.399 23.9646 100.047 21.2142 94.1685 17.6785C86.479 13.0539 76.9239 15.3829 72.6127 17.6785C68.9236 19.643 63.2864 25.1428 62.0322 33C60.4645 42.8214 64.7757 48.3214 69.0868 53.0356Z" fill="url(#paint31_linear_2226_62078)"/>
<g filter="url(#filter29_f_2226_62078)">
<ellipse rx="3.64561" ry="5.25944" transform="matrix(0.975757 -0.218856 0.217867 0.975978 68.6933 39.7171)" fill="white" fill-opacity="0.7"/>
</g>
<g filter="url(#filter30_f_2226_62078)">
<ellipse cx="83.9781" cy="32.214" rx="13.7173" ry="12.5714" fill="#D2F253"/>
</g>
<g filter="url(#filter31_f_2226_62078)">
<ellipse rx="3.65383" ry="5.2476" transform="matrix(-0.0660373 0.997817 -0.997796 -0.0663507 84.3615 23.6375)" fill="white" fill-opacity="0.7"/>
</g>
<g filter="url(#filter32_f_2226_62078)">
<ellipse rx="3.6461" ry="5.25874" transform="matrix(-0.946495 -0.322718 0.321346 -0.946962 98.4703 40.9226)" fill="white" fill-opacity="0.6"/>
</g>
<mask id="mask5_2226_62078" style="mask-type:alpha" maskUnits="userSpaceOnUse" x="61" y="15" width="45" height="51">
<path d="M69.0868 53.0356C72.5358 56.8071 75.227 62.0713 76.1415 64.4284C78.8835 65.2142 89.2303 65.3713 91.425 64.4284C93.3847 57.3568 97.6958 55.0001 102.399 47.9287C107.102 40.8573 105.575 32.9861 104.75 30.643C102.399 23.9646 100.047 21.2142 94.1685 17.6785C86.479 13.0539 76.9239 15.3829 72.6127 17.6785C68.9236 19.643 63.2864 25.1428 62.0322 33C60.4645 42.8214 64.7757 48.3214 69.0868 53.0356Z" fill="url(#paint32_linear_2226_62078)"/>
</mask>
<g mask="url(#mask5_2226_62078)">
<g filter="url(#filter33_ii_2226_62078)">
<path d="M81.2364 65.2146C81.2364 59.7146 81.1566 48.0858 80.8431 45.5715C80.4511 42.4286 79.2754 40.8575 77.7077 40.8575C76.8375 40.8575 75.7495 42.4289 75.748 44C75.748 44.7861 75.8264 46.5932 79.2754 47.5361C82.7243 48.4789 86.9841 47.5361 88.683 46.7503C89.9894 46.0954 92.6571 44.0079 90.2492 41.2499C87.5058 38.1074 85.7963 43.7583 85.5476 46.7504C85.1556 51.4646 85.1556 58.9289 85.1556 65.2143" stroke="#D7C4A5" stroke-width="2"/>
</g>
</g>
<g filter="url(#filter34_f_2226_62078)">
<ellipse cx="85.1543" cy="85.2499" rx="4.70309" ry="1.17857" fill="#B32816"/>
</g>
<path fill-rule="evenodd" clip-rule="evenodd" d="M98.8623 72.544L101.582 70.9766L100.021 68.2531L100.021 68.2533C100.02 68.2531 100.02 68.2528 100.02 68.2525C99.8045 67.8766 99.0211 67.9226 98.2702 68.3553C97.5194 68.7881 97.0853 69.4437 97.3008 69.8196C97.301 69.8199 97.3012 69.8202 97.3013 69.8204L97.3012 69.8205L98.8623 72.544Z" fill="#FDCD52"/>
<ellipse rx="1.56915" ry="0.784691" transform="matrix(-0.866423 0.499312 -0.497315 -0.86757 100.223 71.7609)" fill="#F9961A"/>
<path fill-rule="evenodd" clip-rule="evenodd" d="M115.703 49.1064L116.029 45.9819L112.909 45.653L112.909 45.6532C112.479 45.6088 112.057 46.2713 111.967 47.1337C111.877 47.9966 112.154 48.733 112.584 48.7784C112.593 48.7793 112.601 48.7799 112.61 48.7803L115.703 49.1064Z" fill="#FDCD52"/>
<ellipse rx="1.57117" ry="0.7842" transform="matrix(-0.103808 0.994597 -0.994507 -0.10467 115.865 47.5431)" fill="#F9961A"/>
<path fill-rule="evenodd" clip-rule="evenodd" d="M113.688 19.4345L111.711 16.9962L109.287 18.9711C109.284 18.9736 109.281 18.9762 109.278 18.9788C108.942 19.2526 109.112 20.0204 109.658 20.6938C110.204 21.3671 110.919 21.691 111.255 21.4172C111.257 21.4157 111.259 21.4142 111.26 21.4126L113.688 19.4345Z" fill="#FDCD52"/>
<ellipse rx="1.5697" ry="0.78484" transform="matrix(0.629827 0.776736 -0.775241 0.631666 112.7 18.215)" fill="#F9961A"/>
<path fill-rule="evenodd" clip-rule="evenodd" d="M95.5724 1.67599L92.5732 0.750977L91.6576 3.74286C91.6563 3.74669 91.655 3.75055 91.6538 3.75443C91.527 4.16878 92.0954 4.71167 92.9233 4.967C93.7513 5.22233 94.5253 5.09342 94.6521 4.67906C94.6522 4.67868 94.6523 4.6783 94.6524 4.67792L94.6535 4.67826L95.5724 1.67599Z" fill="#FDCD52"/>
<ellipse rx="1.56856" ry="0.7849" transform="matrix(0.955626 0.294585 -0.292797 0.956175 94.0738 1.21258)" fill="#F9961A"/>
<path fill-rule="evenodd" clip-rule="evenodd" d="M72.6939 3.88176L69.7455 4.95819L70.8155 7.90972L70.8165 7.90937C70.8166 7.90974 70.8168 7.91012 70.8169 7.91049C70.9646 8.31786 71.7442 8.40722 72.5581 8.11008C73.3721 7.81295 73.9122 7.24184 73.7645 6.83447C73.7633 6.83136 73.7622 6.82827 73.761 6.8252L72.6939 3.88176Z" fill="#FDCD52"/>
<ellipse rx="1.56871" ry="0.784822" transform="matrix(0.939396 -0.342835 0.340933 0.940088 71.2188 4.41874)" fill="#F9961A"/>
<path fill-rule="evenodd" clip-rule="evenodd" d="M57.0349 25.2414L58.8046 22.6486L56.2262 20.8798C56.223 20.8775 56.2199 20.8752 56.2166 20.873C55.8592 20.6278 55.1732 21.0095 54.6844 21.7256C54.1957 22.4417 54.0893 23.221 54.4467 23.4662C54.4509 23.469 54.4551 23.4718 54.4593 23.4745L57.0349 25.2414Z" fill="#FDCD52"/>
<ellipse rx="1.56982" ry="0.78487" transform="matrix(-0.563743 0.82595 -0.824623 -0.565683 57.92 23.9444)" fill="#F9961A"/>
<path fill-rule="evenodd" clip-rule="evenodd" d="M54.5228 47.2355L53.6467 44.2204L50.665 45.0938C50.6551 45.0959 50.6453 45.0983 50.6356 45.1012C50.2196 45.223 50.0785 45.9969 50.3206 46.8298C50.5624 47.6618 51.095 48.2378 51.5109 48.1175L51.5109 48.1177L54.5228 47.2355Z" fill="#FDCD52"/>
<ellipse rx="1.57061" ry="0.784635" transform="matrix(0.279194 0.960235 -0.959725 0.280943 54.0839 45.7286)" fill="#F9961A"/>
<path fill-rule="evenodd" clip-rule="evenodd" d="M63.2504 65.9935L60.6036 64.3057L58.9267 66.9491C58.9249 66.9518 58.9232 66.9545 58.9215 66.9572C58.6893 67.3231 59.0935 67.9975 59.8243 68.4635C60.5551 68.9295 61.3356 69.0106 61.5678 68.6447C61.5679 68.6444 61.5681 68.6442 61.5683 68.6439L61.5688 68.6443L63.2504 65.9935Z" fill="#FDCD52"/>
<ellipse rx="1.56924" ry="0.784688" transform="matrix(0.843164 0.537657 -0.535688 0.844416 61.9282 65.1499)" fill="#F9961A"/>
<defs>
<filter id="filter0_f_2226_62078" x="83.0295" y="64.6564" width="53.2418" height="15.65" filterUnits="userSpaceOnUse" color-interpolation-filters="sRGB">
<feFlood flood-opacity="0" result="BackgroundImageFix"/>
<feBlend mode="normal" in="SourceGraphic" in2="BackgroundImageFix" result="shape"/>
<feGaussianBlur stdDeviation="0.35" result="effect1_foregroundBlur_2226_62078"/>
</filter>
<filter id="filter1_f_2226_62078" x="30.9045" y="64.6564" width="53.2418" height="15.65" filterUnits="userSpaceOnUse" color-interpolation-filters="sRGB">
<feFlood flood-opacity="0" result="BackgroundImageFix"/>
<feBlend mode="normal" in="SourceGraphic" in2="BackgroundImageFix" result="shape"/>
<feGaussianBlur stdDeviation="0.35" result="effect1_foregroundBlur_2226_62078"/>
</filter>
<filter id="filter2_f_2226_62078" x="66.3691" y="71.9609" width="77.3184" height="68.3066" filterUnits="userSpaceOnUse" color-interpolation-filters="sRGB">
<feFlood flood-opacity="0" result="BackgroundImageFix"/>
<feBlend mode="normal" in="SourceGraphic" in2="BackgroundImageFix" result="shape"/>
<feGaussianBlur stdDeviation="9" result="effect1_foregroundBlur_2226_62078"/>
</filter>
<filter id="filter3_f_2226_62078" x="14.0303" y="78.9219" width="69.2012" height="69.6436" filterUnits="userSpaceOnUse" color-interpolation-filters="sRGB">
<feFlood flood-opacity="0" result="BackgroundImageFix"/>
<feBlend mode="normal" in="SourceGraphic" in2="BackgroundImageFix" result="shape"/>
<feGaussianBlur stdDeviation="7" result="effect1_foregroundBlur_2226_62078"/>
</filter>
<filter id="filter4_f_2226_62078" x="82.4375" y="150.492" width="54.0342" height="15.2646" filterUnits="userSpaceOnUse" color-interpolation-filters="sRGB">
<feFlood flood-opacity="0" result="BackgroundImageFix"/>
<feBlend mode="normal" in="SourceGraphic" in2="BackgroundImageFix" result="shape"/>
<feGaussianBlur stdDeviation="0.5" result="effect1_foregroundBlur_2226_62078"/>
</filter>
<filter id="filter5_f_2226_62078" x="30.7041" y="150.492" width="54.0342" height="15.2646" filterUnits="userSpaceOnUse" color-interpolation-filters="sRGB">
<feFlood flood-opacity="0" result="BackgroundImageFix"/>
<feBlend mode="normal" in="SourceGraphic" in2="BackgroundImageFix" result="shape"/>
<feGaussianBlur stdDeviation="0.5" result="effect1_foregroundBlur_2226_62078"/>
</filter>
<filter id="filter6_f_2226_62078" x="82.0879" y="92.7852" width="3" height="72.8135" filterUnits="userSpaceOnUse" color-interpolation-filters="sRGB">
<feFlood flood-opacity="0" result="BackgroundImageFix"/>
<feBlend mode="normal" in="SourceGraphic" in2="BackgroundImageFix" result="shape"/>
<feGaussianBlur stdDeviation="0.25" result="effect1_foregroundBlur_2226_62078"/>
</filter>
<filter id="filter7_f_2226_62078" x="135.164" y="81.949" width="27.3588" height="10.9213" filterUnits="userSpaceOnUse" color-interpolation-filters="sRGB">
<feFlood flood-opacity="0" result="BackgroundImageFix"/>
<feBlend mode="normal" in="SourceGraphic" in2="BackgroundImageFix" result="shape"/>
<feGaussianBlur stdDeviation="0.15" result="effect1_foregroundBlur_2226_62078"/>
</filter>
<filter id="filter8_f_2226_62078" x="135.305" y="78.949" width="28.2514" height="11.4213" filterUnits="userSpaceOnUse" color-interpolation-filters="sRGB">
<feFlood flood-opacity="0" result="BackgroundImageFix"/>
<feBlend mode="normal" in="SourceGraphic" in2="BackgroundImageFix" result="shape"/>
<feGaussianBlur stdDeviation="0.15" result="effect1_foregroundBlur_2226_62078"/>
</filter>
<filter id="filter9_f_2226_62078" x="4.26152" y="82.7352" width="25.0072" height="10.1361" filterUnits="userSpaceOnUse" color-interpolation-filters="sRGB">
<feFlood flood-opacity="0" result="BackgroundImageFix"/>
<feBlend mode="normal" in="SourceGraphic" in2="BackgroundImageFix" result="shape"/>
<feGaussianBlur stdDeviation="0.15" result="effect1_foregroundBlur_2226_62078"/>
</filter>
<filter id="filter10_f_2226_62078" x="2.78613" y="78.8994" width="28.7422" height="11.5215" filterUnits="userSpaceOnUse" color-interpolation-filters="sRGB">
<feFlood flood-opacity="0" result="BackgroundImageFix"/>
<feBlend mode="normal" in="SourceGraphic" in2="BackgroundImageFix" result="shape"/>
<feGaussianBlur stdDeviation="0.25" result="effect1_foregroundBlur_2226_62078"/>
</filter>
<filter id="filter11_f_2226_62078" x="82.7295" y="95.7852" width="71.0869" height="26.0312" filterUnits="userSpaceOnUse" color-interpolation-filters="sRGB">
<feFlood flood-opacity="0" result="BackgroundImageFix"/>
<feBlend mode="normal" in="SourceGraphic" in2="BackgroundImageFix" result="shape"/>
<feGaussianBlur stdDeviation="0.5" result="effect1_foregroundBlur_2226_62078"/>
</filter>
<filter id="filter12_f_2226_62078" x="82.4795" y="91.999" width="80.5488" height="26.7334" filterUnits="userSpaceOnUse" color-interpolation-filters="sRGB">
<feFlood flood-opacity="0" result="BackgroundImageFix"/>
<feBlend mode="normal" in="SourceGraphic" in2="BackgroundImageFix" result="shape"/>
<feGaussianBlur stdDeviation="0.5" result="effect1_foregroundBlur_2226_62078"/>
</filter>
<filter id="filter13_f_2226_62078" x="12.9668" y="94.999" width="71.8711" height="26.3955" filterUnits="userSpaceOnUse" color-interpolation-filters="sRGB">
<feFlood flood-opacity="0" result="BackgroundImageFix"/>
<feBlend mode="normal" in="SourceGraphic" in2="BackgroundImageFix" result="shape"/>
<feGaussianBlur stdDeviation="0.5" result="effect1_foregroundBlur_2226_62078"/>
</filter>
<filter id="filter14_f_2226_62078" x="3.02734" y="92.499" width="81.1621" height="26.1211" filterUnits="userSpaceOnUse" color-interpolation-filters="sRGB">
<feFlood flood-opacity="0" result="BackgroundImageFix"/>
<feBlend mode="normal" in="SourceGraphic" in2="BackgroundImageFix" result="shape"/>
<feGaussianBlur stdDeviation="0.25" result="effect1_foregroundBlur_2226_62078"/>
</filter>
<filter id="filter15_f_2226_62078" x="72.5312" y="72.2139" width="12.7031" height="14.2861" filterUnits="userSpaceOnUse" color-interpolation-filters="sRGB">
<feFlood flood-opacity="0" result="BackgroundImageFix"/>
<feBlend mode="normal" in="SourceGraphic" in2="BackgroundImageFix" result="shape"/>
<feGaussianBlur stdDeviation="2" result="effect1_foregroundBlur_2226_62078"/>
</filter>
<filter id="filter16_f_2226_62078" x="85.0732" y="72.2139" width="12.7031" height="14.2861" filterUnits="userSpaceOnUse" color-interpolation-filters="sRGB">
<feFlood flood-opacity="0" result="BackgroundImageFix"/>
<feBlend mode="normal" in="SourceGraphic" in2="BackgroundImageFix" result="shape"/>
<feGaussianBlur stdDeviation="2" result="effect1_foregroundBlur_2226_62078"/>
</filter>
<filter id="filter17_f_2226_62078" x="72.3123" y="75.6785" width="22.5473" height="2.95742" filterUnits="userSpaceOnUse" color-interpolation-filters="sRGB">
<feFlood flood-opacity="0" result="BackgroundImageFix"/>
<feBlend mode="normal" in="SourceGraphic" in2="BackgroundImageFix" result="shape"/>
<feGaussianBlur stdDeviation="0.15" result="effect1_foregroundBlur_2226_62078"/>
</filter>
<filter id="filter18_f_2226_62078" x="71.3545" y="79.4922" width="24.4492" height="4.13281" filterUnits="userSpaceOnUse" color-interpolation-filters="sRGB">
<feFlood flood-opacity="0" result="BackgroundImageFix"/>
<feBlend mode="normal" in="SourceGraphic" in2="BackgroundImageFix" result="shape"/>
<feGaussianBlur stdDeviation="0.5" result="effect1_foregroundBlur_2226_62078"/>
</filter>
<filter id="filter19_f_2226_62078" x="73.5283" y="75.8047" width="20.1279" height="2.98438" filterUnits="userSpaceOnUse" color-interpolation-filters="sRGB">
<feFlood flood-opacity="0" result="BackgroundImageFix"/>
<feBlend mode="normal" in="SourceGraphic" in2="BackgroundImageFix" result="shape"/>
<feGaussianBlur stdDeviation="0.5" result="effect1_foregroundBlur_2226_62078"/>
</filter>
<filter id="filter20_f_2226_62078" x="72.5312" y="65.9287" width="12.7031" height="14.2861" filterUnits="userSpaceOnUse" color-interpolation-filters="sRGB">
<feFlood flood-opacity="0" result="BackgroundImageFix"/>
<feBlend mode="normal" in="SourceGraphic" in2="BackgroundImageFix" result="shape"/>
<feGaussianBlur stdDeviation="2" result="effect1_foregroundBlur_2226_62078"/>
</filter>
<filter id="filter21_f_2226_62078" x="85.0732" y="65.9287" width="12.7031" height="14.2861" filterUnits="userSpaceOnUse" color-interpolation-filters="sRGB">
<feFlood flood-opacity="0" result="BackgroundImageFix"/>
<feBlend mode="normal" in="SourceGraphic" in2="BackgroundImageFix" result="shape"/>
<feGaussianBlur stdDeviation="2" result="effect1_foregroundBlur_2226_62078"/>
</filter>
<filter id="filter22_f_2226_62078" x="72.3123" y="69.3934" width="22.5473" height="2.95742" filterUnits="userSpaceOnUse" color-interpolation-filters="sRGB">
<feFlood flood-opacity="0" result="BackgroundImageFix"/>
<feBlend mode="normal" in="SourceGraphic" in2="BackgroundImageFix" result="shape"/>
<feGaussianBlur stdDeviation="0.15" result="effect1_foregroundBlur_2226_62078"/>
</filter>
<filter id="filter23_f_2226_62078" x="71.3545" y="73.207" width="24.4492" height="4.13281" filterUnits="userSpaceOnUse" color-interpolation-filters="sRGB">
<feFlood flood-opacity="0" result="BackgroundImageFix"/>
<feBlend mode="normal" in="SourceGraphic" in2="BackgroundImageFix" result="shape"/>
<feGaussianBlur stdDeviation="0.5" result="effect1_foregroundBlur_2226_62078"/>
</filter>
<filter id="filter24_f_2226_62078" x="73.5283" y="69.5195" width="20.1279" height="2.98438" filterUnits="userSpaceOnUse" color-interpolation-filters="sRGB">
<feFlood flood-opacity="0" result="BackgroundImageFix"/>
<feBlend mode="normal" in="SourceGraphic" in2="BackgroundImageFix" result="shape"/>
<feGaussianBlur stdDeviation="0.5" result="effect1_foregroundBlur_2226_62078"/>
</filter>
<filter id="filter25_f_2226_62078" x="72.5312" y="59.6426" width="12.7031" height="14.2861" filterUnits="userSpaceOnUse" color-interpolation-filters="sRGB">
<feFlood flood-opacity="0" result="BackgroundImageFix"/>
<feBlend mode="normal" in="SourceGraphic" in2="BackgroundImageFix" result="shape"/>
<feGaussianBlur stdDeviation="2" result="effect1_foregroundBlur_2226_62078"/>
</filter>
<filter id="filter26_f_2226_62078" x="85.0732" y="59.6426" width="12.7031" height="14.2861" filterUnits="userSpaceOnUse" color-interpolation-filters="sRGB">
<feFlood flood-opacity="0" result="BackgroundImageFix"/>
<feBlend mode="normal" in="SourceGraphic" in2="BackgroundImageFix" result="shape"/>
<feGaussianBlur stdDeviation="2" result="effect1_foregroundBlur_2226_62078"/>
</filter>
<filter id="filter27_f_2226_62078" x="72.3123" y="63.1072" width="22.5473" height="2.95742" filterUnits="userSpaceOnUse" color-interpolation-filters="sRGB">
<feFlood flood-opacity="0" result="BackgroundImageFix"/>
<feBlend mode="normal" in="SourceGraphic" in2="BackgroundImageFix" result="shape"/>
<feGaussianBlur stdDeviation="0.15" result="effect1_foregroundBlur_2226_62078"/>
</filter>
<filter id="filter28_f_2226_62078" x="71.3545" y="66.9209" width="24.4492" height="4.13281" filterUnits="userSpaceOnUse" color-interpolation-filters="sRGB">
<feFlood flood-opacity="0" result="BackgroundImageFix"/>
<feBlend mode="normal" in="SourceGraphic" in2="BackgroundImageFix" result="shape"/>
<feGaussianBlur stdDeviation="0.5" result="effect1_foregroundBlur_2226_62078"/>
</filter>
<filter id="filter29_f_2226_62078" x="56.9551" y="26.5215" width="23.4766" height="26.3906" filterUnits="userSpaceOnUse" color-interpolation-filters="sRGB">
<feFlood flood-opacity="0" result="BackgroundImageFix"/>
<feBlend mode="normal" in="SourceGraphic" in2="BackgroundImageFix" result="shape"/>
<feGaussianBlur stdDeviation="4" result="effect1_foregroundBlur_2226_62078"/>
</filter>
<filter id="filter30_f_2226_62078" x="54.2607" y="3.64258" width="59.4346" height="57.1426" filterUnits="userSpaceOnUse" color-interpolation-filters="sRGB">
<feFlood flood-opacity="0" result="BackgroundImageFix"/>
<feBlend mode="normal" in="SourceGraphic" in2="BackgroundImageFix" result="shape"/>
<feGaussianBlur stdDeviation="8" result="effect1_foregroundBlur_2226_62078"/>
</filter>
<filter id="filter31_f_2226_62078" x="71.1201" y="11.9746" width="26.4834" height="23.3252" filterUnits="userSpaceOnUse" color-interpolation-filters="sRGB">
<feFlood flood-opacity="0" result="BackgroundImageFix"/>
<feBlend mode="normal" in="SourceGraphic" in2="BackgroundImageFix" result="shape"/>
<feGaussianBlur stdDeviation="4" result="effect1_foregroundBlur_2226_62078"/>
</filter>
<filter id="filter32_f_2226_62078" x="88.627" y="29.8047" width="19.6865" height="22.2363" filterUnits="userSpaceOnUse" color-interpolation-filters="sRGB">
<feFlood flood-opacity="0" result="BackgroundImageFix"/>
<feBlend mode="normal" in="SourceGraphic" in2="BackgroundImageFix" result="shape"/>
<feGaussianBlur stdDeviation="3" result="effect1_foregroundBlur_2226_62078"/>
</filter>
<filter id="filter33_ii_2226_62078" x="74.248" y="38.8252" width="18.4727" height="26.8896" filterUnits="userSpaceOnUse" color-interpolation-filters="sRGB">
<feFlood flood-opacity="0" result="BackgroundImageFix"/>
<feBlend mode="normal" in="SourceGraphic" in2="BackgroundImageFix" result="shape"/>
<feColorMatrix in="SourceAlpha" type="matrix" values="0 0 0 0 0 0 0 0 0 0 0 0 0 0 0 0 0 0 127 0" result="hardAlpha"/>
<feOffset dx="-0.5" dy="-0.5"/>
<feGaussianBlur stdDeviation="0.5"/>
<feComposite in2="hardAlpha" operator="arithmetic" k2="-1" k3="1"/>
<feColorMatrix type="matrix" values="0 0 0 0 0 0 0 0 0 0 0 0 0 0 0 0 0 0 0.15 0"/>
<feBlend mode="normal" in2="shape" result="effect1_innerShadow_2226_62078"/>
<feColorMatrix in="SourceAlpha" type="matrix" values="0 0 0 0 0 0 0 0 0 0 0 0 0 0 0 0 0 0 127 0" result="hardAlpha"/>
<feOffset dx="0.5" dy="0.5"/>
<feGaussianBlur stdDeviation="0.5"/>
<feComposite in2="hardAlpha" operator="arithmetic" k2="-1" k3="1"/>
<feColorMatrix type="matrix" values="0 0 0 0 1 0 0 0 0 1 0 0 0 0 1 0 0 0 0.4 0"/>
<feBlend mode="normal" in2="effect1_innerShadow_2226_62078" result="effect2_innerShadow_2226_62078"/>
</filter>
<filter id="filter34_f_2226_62078" x="77.4512" y="81.0713" width="15.4062" height="8.35742" filterUnits="userSpaceOnUse" color-interpolation-filters="sRGB">
<feFlood flood-opacity="0" result="BackgroundImageFix"/>
<feBlend mode="normal" in="SourceGraphic" in2="BackgroundImageFix" result="shape"/>
<feGaussianBlur stdDeviation="1.5" result="effect1_foregroundBlur_2226_62078"/>
</filter>
<linearGradient id="paint0_linear_2226_62078" x1="83.5879" y1="73.071" x2="129.462" y2="87.1525" gradientUnits="userSpaceOnUse">
<stop stop-color="#A24BF9"/>
<stop offset="1" stop-color="#874FFF"/>
</linearGradient>
<linearGradient id="paint1_linear_2226_62078" x1="85.5472" y1="65.9993" x2="133.378" y2="79.2976" gradientUnits="userSpaceOnUse">
<stop stop-color="#C195F9"/>
<stop offset="1" stop-color="#AF61FD"/>
</linearGradient>
<linearGradient id="paint2_linear_2226_62078" x1="83.5879" y1="88.3924" x2="41.6466" y2="81.3536" gradientUnits="userSpaceOnUse">
<stop stop-color="#7122F1"/>
<stop offset="0.473958" stop-color="#B866F8"/>
<stop offset="1" stop-color="#AD7AFF"/>
</linearGradient>
<linearGradient id="paint3_linear_2226_62078" x1="83.1963" y1="65.6064" x2="34.9743" y2="78.5133" gradientUnits="userSpaceOnUse">
<stop stop-color="#AD74F4"/>
<stop offset="1" stop-color="#BB89FA"/>
</linearGradient>
<linearGradient id="paint4_linear_2226_62078" x1="110.239" y1="95.0711" x2="110.239" y2="155.964" gradientUnits="userSpaceOnUse">
<stop stop-color="#B681FA"/>
<stop offset="1" stop-color="#AD86FF"/>
</linearGradient>
<linearGradient id="paint5_linear_2226_62078" x1="110.239" y1="95.0711" x2="110.239" y2="155.964" gradientUnits="userSpaceOnUse">
<stop stop-color="#F0C865"/>
<stop offset="1" stop-color="#FFD97C"/>
</linearGradient>
<linearGradient id="paint6_linear_2226_62078" x1="15.2516" y1="1.46604" x2="51.0404" y2="14.5722" gradientUnits="userSpaceOnUse">
<stop stop-color="#311950" stop-opacity="0.73"/>
<stop offset="1" stop-color="#490076"/>
</linearGradient>
<linearGradient id="paint7_linear_2226_62078" x1="66.7355" y1="97.0357" x2="46.2701" y2="152.004" gradientUnits="userSpaceOnUse">
<stop stop-color="#7246EE"/>
<stop offset="1" stop-color="#8D2CDA"/>
</linearGradient>
<linearGradient id="paint8_linear_2226_62078" x1="66.7355" y1="97.0357" x2="46.2701" y2="152.004" gradientUnits="userSpaceOnUse">
<stop stop-color="#CD7104"/>
<stop offset="1" stop-color="#A73B08"/>
</linearGradient>
<linearGradient id="paint9_linear_2226_62078" x1="87.5071" y1="163.428" x2="151.557" y2="134.403" gradientUnits="userSpaceOnUse">
<stop stop-color="#300292"/>
<stop offset="1" stop-color="#4A0292" stop-opacity="0.12"/>
</linearGradient>
<linearGradient id="paint10_linear_2226_62078" x1="79.6687" y1="163.428" x2="15.6183" y2="134.403" gradientUnits="userSpaceOnUse">
<stop stop-color="#200048"/>
<stop offset="0.927083" stop-color="#5F1107" stop-opacity="0.184167"/>
<stop offset="1" stop-color="#641302" stop-opacity="0.12"/>
</linearGradient>
<linearGradient id="paint11_linear_2226_62078" x1="84.0879" y1="127.231" x2="82.5879" y2="127.231" gradientUnits="userSpaceOnUse">
<stop stop-color="#CD8EF4"/>
<stop offset="1" stop-color="#7546A4"/>
</linearGradient>
<linearGradient id="paint12_linear_2226_62078" x1="148.647" y1="86.0347" x2="147.643" y2="88.2941" gradientUnits="userSpaceOnUse">
<stop stop-color="#CDA1FA"/>
<stop offset="1" stop-color="#8F4EE0"/>
</linearGradient>
<linearGradient id="paint13_linear_2226_62078" x1="6.77037" y1="89.9636" x2="3.24138" y2="91.1371" gradientUnits="userSpaceOnUse">
<stop stop-color="#8B46D0"/>
<stop offset="1" stop-color="#690DC6"/>
</linearGradient>
<linearGradient id="paint14_linear_2226_62078" x1="14.6096" y1="87.6066" x2="15.2163" y2="89.6241" gradientUnits="userSpaceOnUse">
<stop stop-color="#896FC0"/>
<stop offset="1" stop-color="#72569F"/>
</linearGradient>
<linearGradient id="paint15_linear_2226_62078" x1="3.63574" y1="89.5704" x2="30.1752" y2="82.1562" gradientUnits="userSpaceOnUse">
<stop stop-color="#7A30B5"/>
<stop offset="0.275995" stop-color="#9852F1"/>
</linearGradient>
<linearGradient id="paint16_linear_2226_62078" x1="84.7637" y1="97.035" x2="114.602" y2="119.752" gradientUnits="userSpaceOnUse">
<stop stop-color="#B06AF5"/>
<stop offset="1" stop-color="#8A49F5"/>
</linearGradient>
<linearGradient id="paint17_linear_2226_62078" x1="105.535" y1="122.571" x2="143.956" y2="112.402" gradientUnits="userSpaceOnUse">
<stop stop-color="#4A0292"/>
<stop offset="1" stop-color="#410292" stop-opacity="0"/>
</linearGradient>
<linearGradient id="paint18_linear_2226_62078" x1="82.3896" y1="97.035" x2="54.5764" y2="121.05" gradientUnits="userSpaceOnUse">
<stop stop-color="#CA87FE"/>
<stop offset="1" stop-color="#8B41D5"/>
</linearGradient>
<linearGradient id="paint19_linear_2226_62078" x1="61.2215" y1="122.178" x2="22.1644" y2="111.642" gradientUnits="userSpaceOnUse">
<stop stop-color="#795FC4"/>
<stop offset="1" stop-color="#672FC2" stop-opacity="0.45"/>
</linearGradient>
<linearGradient id="paint20_linear_2226_62078" x1="53.0178" y1="84.8564" x2="41.9987" y2="112.731" gradientUnits="userSpaceOnUse">
<stop stop-color="#B163FF"/>
<stop offset="1" stop-color="#8743F5"/>
</linearGradient>
<linearGradient id="paint21_linear_2226_62078" x1="70.654" y1="95.8562" x2="49.0489" y2="116.626" gradientUnits="userSpaceOnUse">
<stop stop-color="#BB86FF"/>
<stop offset="1" stop-color="#9958ED"/>
</linearGradient>
<linearGradient id="paint22_linear_2226_62078" x1="83.5859" y1="67.5717" x2="83.5859" y2="87.2146" gradientUnits="userSpaceOnUse">
<stop stop-color="#F46044"/>
<stop offset="1" stop-color="#C7220E"/>
</linearGradient>
<linearGradient id="paint23_linear_2226_62078" x1="83.5862" y1="78.9641" x2="83.5862" y2="76.9998" gradientUnits="userSpaceOnUse">
<stop stop-color="#DB4A32"/>
<stop offset="1" stop-color="#EC614A"/>
</linearGradient>
<linearGradient id="paint24_linear_2226_62078" x1="72.6123" y1="81.3216" x2="94.5601" y2="81.3216" gradientUnits="userSpaceOnUse">
<stop stop-color="#BC503D" stop-opacity="0.3"/>
<stop offset="0.181672" stop-color="#9E4333" stop-opacity="0.95"/>
<stop offset="0.489117" stop-color="#6C2C22"/>
<stop offset="0.876121" stop-color="#B2422F" stop-opacity="0.75"/>
<stop offset="1" stop-color="#D14C34" stop-opacity="0.3"/>
</linearGradient>
<linearGradient id="paint25_linear_2226_62078" x1="74.5723" y1="77" x2="92.6008" y2="77" gradientUnits="userSpaceOnUse">
<stop stop-color="white" stop-opacity="0.6"/>
<stop offset="0.5" stop-color="white"/>
<stop offset="1" stop-color="white" stop-opacity="0.49"/>
</linearGradient>
<linearGradient id="paint26_linear_2226_62078" x1="83.5862" y1="72.6789" x2="83.5862" y2="70.7146" gradientUnits="userSpaceOnUse">
<stop stop-color="#DB4A32"/>
<stop offset="1" stop-color="#EC614A"/>
</linearGradient>
<linearGradient id="paint27_linear_2226_62078" x1="72.6123" y1="75.0364" x2="94.5601" y2="75.0364" gradientUnits="userSpaceOnUse">
<stop stop-color="#BC503D" stop-opacity="0.3"/>
<stop offset="0.181672" stop-color="#9E4333" stop-opacity="0.95"/>
<stop offset="0.489117" stop-color="#6C2C22"/>
<stop offset="0.876121" stop-color="#B2422F" stop-opacity="0.75"/>
<stop offset="1" stop-color="#D14C34" stop-opacity="0.3"/>
</linearGradient>
<linearGradient id="paint28_linear_2226_62078" x1="74.5723" y1="70.7148" x2="92.6008" y2="70.7148" gradientUnits="userSpaceOnUse">
<stop stop-color="white" stop-opacity="0.6"/>
<stop offset="0.5" stop-color="white"/>
<stop offset="1" stop-color="white" stop-opacity="0.49"/>
</linearGradient>
<linearGradient id="paint29_linear_2226_62078" x1="83.5862" y1="66.3928" x2="83.5862" y2="64.4285" gradientUnits="userSpaceOnUse">
<stop stop-color="#DB4A32"/>
<stop offset="1" stop-color="#EC614A"/>
</linearGradient>
<linearGradient id="paint30_linear_2226_62078" x1="72.6123" y1="68.7503" x2="94.5601" y2="68.7503" gradientUnits="userSpaceOnUse">
<stop stop-color="#BC503D" stop-opacity="0.3"/>
<stop offset="0.181672" stop-color="#9E4333" stop-opacity="0.95"/>
<stop offset="0.489117" stop-color="#6C2C22"/>
<stop offset="0.876121" stop-color="#B2422F" stop-opacity="0.75"/>
<stop offset="1" stop-color="#D14C34" stop-opacity="0.3"/>
</linearGradient>
<linearGradient id="paint31_linear_2226_62078" x1="83.6814" y1="15.0137" x2="83.6814" y2="64.8214" gradientUnits="userSpaceOnUse">
<stop stop-color="#FFEE00"/>
<stop offset="0.896143" stop-color="#F0A216"/>
<stop offset="1" stop-color="#F39F15" stop-opacity="0.92"/>
</linearGradient>
<linearGradient id="paint32_linear_2226_62078" x1="83.6814" y1="15.0137" x2="83.6814" y2="64.8214" gradientUnits="userSpaceOnUse">
<stop stop-color="#DCD352"/>
<stop offset="0.923254" stop-color="#CC8E1E"/>
<stop offset="1" stop-color="#CB881A" stop-opacity="0.92"/>
</linearGradient>
</defs>
</svg>
