<svg width="40" height="40" viewBox="0 0 40 40" fill="none" xmlns="http://www.w3.org/2000/svg">
<rect width="40" height="40" rx="8" fill="#31D1A1"/>
<path d="M20.1331 19.0587C20.0498 19.0503 19.9498 19.0503 19.8581 19.0587C17.8748 18.992 16.2998 17.367 16.2998 15.367C16.2998 13.3253 17.9498 11.667 19.9998 11.667C22.0415 11.667 23.6998 13.3253 23.6998 15.367C23.6915 17.367 22.1165 18.992 20.1331 19.0587Z" fill="white" stroke="white" stroke-width="0.8" stroke-linecap="round" stroke-linejoin="round"/>
<path d="M15.9666 22.133C13.9499 23.483 13.9499 25.683 15.9666 27.0247C18.2583 28.558 22.0166 28.558 24.3083 27.0247C26.3249 25.6747 26.3249 23.4747 24.3083 22.133C22.0249 20.608 18.2666 20.608 15.9666 22.133Z" fill="white" stroke="white" stroke-width="0.8" stroke-linecap="round" stroke-linejoin="round"/>
</svg>
