<svg width="32" height="32" viewBox="0 0 32 32" fill="none" xmlns="http://www.w3.org/2000/svg">
<rect width="32" height="32" rx="6" fill="#2BD89A"/>
<path d="M18.1375 9.9626V12.8126H17.0125V9.9626C17.0125 9.7601 16.8325 9.6626 16.7125 9.6626C16.675 9.6626 16.6375 9.6701 16.6 9.6851L10.6525 11.9276C10.255 12.0776 10 12.4526 10 12.8801V13.3826C9.3175 13.8926 8.875 14.7101 8.875 15.6326V12.8801C8.875 11.9876 9.4225 11.1926 10.255 10.8776L16.21 8.6276C16.375 8.5676 16.5475 8.5376 16.7125 8.5376C17.4625 8.5376 18.1375 9.1451 18.1375 9.9626Z" fill="white"/>
<path d="M23.1245 17.875V18.625C23.1245 18.8275 22.967 18.9925 22.757 19H21.662C21.2645 19 20.9045 18.7075 20.8745 18.3175C20.852 18.085 20.942 17.8675 21.092 17.7175C21.227 17.575 21.4145 17.5 21.617 17.5H22.7495C22.967 17.5075 23.1245 17.6725 23.1245 17.875Z" fill="white"/>
<path d="M21.61 16.7125H22.375C22.7875 16.7125 23.125 16.375 23.125 15.9625V15.6325C23.125 14.08 21.8575 12.8125 20.305 12.8125H11.695C11.0575 12.8125 10.4725 13.0225 10 13.3825C9.3175 13.8925 8.875 14.71 8.875 15.6325V20.68C8.875 22.2325 10.1425 23.5 11.695 23.5H20.305C21.8575 23.5 23.125 22.2325 23.125 20.68V20.5375C23.125 20.125 22.7875 19.7875 22.375 19.7875H21.7225C21.0025 19.7875 20.3125 19.345 20.125 18.6475C19.9675 18.0775 20.155 17.53 20.53 17.1625C20.8075 16.8775 21.19 16.7125 21.61 16.7125ZM17.5 16.5625H12.25C11.9425 16.5625 11.6875 16.3075 11.6875 16C11.6875 15.6925 11.9425 15.4375 12.25 15.4375H17.5C17.8075 15.4375 18.0625 15.6925 18.0625 16C18.0625 16.3075 17.8075 16.5625 17.5 16.5625Z" fill="white"/>
</svg>
